<?xml version="1.0" standalone="no"?><!DOCTYPE svg PUBLIC "-//W3C//DTD SVG 1.1//EN"
        "http://www.w3.org/Graphics/SVG/1.1/DTD/svg11.dtd">
<svg t="1596884033513" class="icon" viewBox="0 0 1024 1024" version="1.1" xmlns="http://www.w3.org/2000/svg" p-id="5013"
     xmlns:xlink="http://www.w3.org/1999/xlink" width="200" height="200">
    <defs>
        <style type="text/css"></style>
    </defs>
    <path d="M911.58784 736.369778c-62.577778-55.068444-107.349333-201.272889-107.349333-373.020445a296.789333 296.789333 0 0 0-196.608-280.632889C599.950507 35.84 560.128284 0 511.772729 0c-48.355556 0-88.177778 35.84-95.857778 82.716444a296.789333 296.789333 0 0 0-196.551111 280.632889c0 171.690667-44.714667 317.952-107.406222 372.963556A163.043556 163.043556 0 0 0 56.889173 858.794667c0 54.727111 43.633778 99.100444 97.507556 99.100444h292.408889C446.805618 1012.622222 457.95584 1024 511.772729 1024c53.873778 0 65.024-11.320889 65.024-65.991111h292.408889c53.816889 0 97.450667-44.373333 97.450666-99.157333 0-46.990222-20.081778-91.648-55.068444-122.424889zM191.71584 887.466667c-58.766222 0-62.008889-64.284444-48.412444-76.231111 87.04-76.458667 141.084444-248.035556 141.084444-447.886223 0-109.283556 119.978667-231.196444 227.441778-231.196444 107.52 0 227.441778 121.912889 227.441778 231.196444 0 199.793778 54.101333 371.484444 141.141333 448 13.596444 11.889778 20.593778 76.117333-48.469333 76.117334H191.71584z"
          fill="#999999" p-id="5014"></path>
</svg>