<?xml version="1.0" standalone="no"?><!DOCTYPE svg PUBLIC "-//W3C//DTD SVG 1.1//EN"
        "http://www.w3.org/Graphics/SVG/1.1/DTD/svg11.dtd">
<svg t="1597112803334" class="icon" viewBox="0 0 1024 1024" version="1.1" xmlns="http://www.w3.org/2000/svg" p-id="1695"
     xmlns:xlink="http://www.w3.org/1999/xlink" width="200" height="200">
    <defs>
        <style type="text/css"></style>
    </defs>
    <path d="M221.696 398.848c20.992 0 37.888 16.896 37.888 37.888 0 20.992-16.896 37.888-37.888 37.888-20.992 0-37.888-16.896-37.888-37.888 0-20.992 16.896-37.888 37.888-37.888z m73.216 74.752h3.584c19.968 0 35.84 15.872 35.84 35.84v3.584c0 19.968-15.872 35.84-35.84 35.84h-3.584c-19.968 0-35.84-15.872-35.84-35.84v-3.584c0.512-19.456 16.384-35.84 35.84-35.84z m77.312 75.264c20.992 0 37.888 16.896 37.888 37.888 0 20.992-16.896 37.888-37.888 37.888-20.992 0-37.888-16.896-37.888-37.888 0.512-20.992 17.408-37.888 37.888-37.888zM296.96 624.64c20.992 0 37.888 16.896 37.888 37.888 0 20.992-16.896 37.888-37.888 37.888-20.992 0-37.888-16.896-37.888-37.888 0.512-20.992 16.896-37.888 37.888-37.888z m-75.264 75.264c20.992 0 37.888 16.896 37.888 37.888 0 20.992-16.896 37.888-37.888 37.888-20.992 0-37.888-16.896-37.888-37.888 0-20.992 16.896-37.888 37.888-37.888z m249.344 3.072h322.048c16.896 0 30.72 11.264 30.72 25.6s-13.824 25.6-30.72 25.6H471.04c-16.896 0-30.72-11.264-30.72-25.6 0-13.824 13.824-25.6 30.72-25.6z m92.16-267.264h230.4c16.896 0 30.72 11.264 30.72 25.6s-13.824 25.6-30.72 25.6H563.2c-16.896 0-30.72-11.264-30.72-25.6s13.312-25.6 30.72-25.6z m0 121.344h230.4c16.896 0 30.72 11.264 30.72 25.6s-13.824 25.6-30.72 25.6H563.2c-16.896 0-30.72-11.264-30.72-25.6s13.312-25.6 30.72-25.6zM51.2 266.24v48.64h919.552v-48.64H51.2z m920.064 49.152h4.096v-48.64h-4.096v48.64z"
          fill="currentColor" p-id="1696"></path>
    <path d="M934.912 124.416H86.016C38.4 124.416 0 162.816 0 210.432V816.64c0 47.616 38.4 86.016 86.016 86.016h849.408c47.616 0 86.016-38.4 86.016-86.016V210.432c-0.512-47.616-38.912-86.016-86.528-86.016z m27.648 194.56v481.28c0 20.992-16.896 37.888-37.888 37.888H97.792c-20.992 0-37.888-16.896-37.888-37.888V232.96c0-20.992 16.896-37.888 37.888-37.888H924.16c20.992 0 37.888 16.896 37.888 37.888v37.888l0.512 48.128z"
          fill="currentColor" p-id="1697"></path>
</svg>